<svg width="512" height="512" viewBox="0 0 512 512" fill="none" xmlns="http://www.w3.org/2000/svg">
<path d="M17.4201 229.241V34.778H72.5552C119.379 34.778 151.241 74.2261 151.241 132.009C151.241 189.792 119.379 229.241 72.5552 229.241H17.4201ZM41.5244 207.572H72.5552C105.526 207.572 126.859 178.125 126.859 132.009C126.859 85.8939 105.526 56.4467 72.5552 56.4467H41.5244V207.572Z" fill="black"/>
<path d="M187.704 179.791H210.423C212.363 198.404 229.818 211.461 253.091 211.461C277.472 211.461 294.096 197.293 294.096 176.458C294.096 158.678 281.905 147.844 257.247 142.566L245.887 140.343C210.978 133.398 192.969 115.619 192.969 87.2829C192.969 54.5021 217.35 32 252.814 32C287.169 32 313.767 53.1131 315.43 81.449H292.711C290.494 65.0586 274.147 53.3909 253.368 53.3909C231.203 53.3909 216.519 66.4476 216.519 85.8939C216.519 102.562 227.601 113.119 249.212 117.563L260.572 119.786C298.529 127.564 317.923 145.899 317.923 175.347C317.923 209.516 291.602 233.13 253.645 233.13C216.519 233.13 188.813 210.628 187.704 179.791Z" fill="black"/>
<path d="M473.246 179.791H496.242C492.086 210.35 466.32 232.019 434.458 232.019C390.405 232.019 360.205 191.181 360.205 132.009C360.205 72.5593 390.405 32 433.904 32C464.934 32 489.87 52.5575 494.58 81.449H471.307C467.428 65.0586 452.744 54.2243 434.735 54.2243C404.258 54.2243 384.587 85.0605 384.587 132.287C384.587 179.514 404.258 209.794 435.012 209.794C454.129 209.794 469.367 197.849 473.246 179.791Z" fill="black"/>
<path d="M31.5502 481H8L67.014 286.537H99.7072L158.721 481H134.617L117.993 426.273H48.1739L31.5502 481ZM54.5463 404.882H111.621L83.6377 312.095H82.5294L54.5463 404.882Z" fill="black"/>
<path d="M235.913 481V308.206H177.453V286.537H318.2V308.206H260.017V481H235.913Z" fill="black"/>
<path d="M343.859 481L408.968 379.879L348.292 286.537H375.721L423.929 360.155L472.138 286.537H499.013L438.614 379.602L504 481H476.571L423.652 399.604L370.734 481H343.859Z" fill="black"/>
</svg>
