<?xml version="1.0" standalone="no"?>
<!DOCTYPE svg PUBLIC "-//W3C//DTD SVG 20010904//EN"
 "http://www.w3.org/TR/2001/REC-SVG-20010904/DTD/svg10.dtd">
<svg version="1.0" xmlns="http://www.w3.org/2000/svg"
 width="96.000000pt" height="96.000000pt" viewBox="0 0 96.000000 96.000000"
 preserveAspectRatio="xMidYMid meet">
<metadata>
Created by potrace 1.14, written by Peter Selinger 2001-2017
</metadata>
<g transform="translate(0.000000,96.000000) scale(0.100000,-0.100000)"
fill="#000000" stroke="none">
<path d="M79 846 c-1 -6 -2 -78 -3 -159 -1 -123 2 -150 14 -156 28 -14 121 -4
149 16 83 61 83 225 -1 286 -30 23 -157 32 -159 13z m125 -37 c48 -22 71 -114
46 -186 -13 -36 -54 -61 -99 -59 l-34 1 0 100 c1 166 -1 155 33 155 16 0 40
-5 54 -11z"/>
<path d="M423 850 c-12 -5 -29 -22 -37 -38 -32 -63 5 -124 84 -137 50 -8 70
-27 70 -65 0 -54 -82 -70 -125 -24 -13 14 -31 24 -39 22 -26 -5 10 -65 46 -77
83 -29 159 9 161 82 1 49 -31 82 -95 97 -32 8 -54 20 -65 36 -14 22 -14 26 1
49 12 19 25 25 51 25 31 0 65 -21 65 -40 0 -4 9 -6 20 -3 26 7 25 16 -3 48
-25 30 -94 43 -134 25z"/>
<path d="M707 826 c-80 -80 -61 -257 33 -296 55 -23 124 7 143 63 10 27 -26
21 -52 -9 -16 -19 -30 -24 -54 -22 -104 10 -104 246 0 256 23 2 38 -3 55 -20
28 -28 48 -32 48 -9 0 30 -45 63 -93 68 -40 5 -47 2 -80 -31z"/>
<path d="M125 313 c-20 -65 -43 -138 -51 -162 -17 -55 -18 -51 5 -51 14 0 23
12 33 43 l15 42 60 3 60 3 13 -46 c10 -36 17 -45 35 -45 22 0 21 3 -29 165
-49 161 -51 165 -78 165 -26 0 -29 -5 -63 -117z m85 -2 c11 -37 20 -71 20 -75
0 -3 -21 -6 -46 -6 -33 0 -45 4 -41 13 2 6 13 40 23 75 10 34 19 62 21 62 1 0
11 -31 23 -69z"/>
<path d="M350 410 c0 -17 7 -20 48 -20 l48 0 -1 -145 c0 -140 0 -145 21 -145
20 0 20 5 20 143 l-1 142 48 5 c26 3 47 8 47 13 0 4 0 12 0 17 0 6 -45 10
-115 10 -108 0 -115 -1 -115 -20z"/>
<path d="M651 408 c7 -13 29 -48 50 -79 l38 -56 -48 -74 c-26 -41 -50 -80 -55
-86 -5 -9 0 -13 16 -13 18 0 33 14 62 60 21 33 42 63 46 65 4 3 27 -24 50 -60
33 -50 48 -65 66 -65 l24 0 -26 43 c-15 23 -40 61 -56 84 l-28 42 43 68 c24
37 47 74 51 81 5 8 0 12 -16 12 -18 0 -33 -14 -62 -60 -21 -33 -42 -58 -46
-55 -4 2 -22 29 -41 60 -25 41 -39 55 -56 55 -21 0 -23 -2 -12 -22z"/>
</g>
</svg>
